<?xml version="1.0" encoding="utf-8"?><svg xml:space="preserve" viewBox="0 0 100 100" y="0" x="0" xmlns="http://www.w3.org/2000/svg" id="Layer_1" version="1.1" width="122px" height="122px" xmlns:xlink="http://www.w3.org/1999/xlink" style="width:100%;height:100%;background-size:initial;background-repeat-y:initial;background-repeat-x:initial;background-position-y:initial;background-position-x:initial;background-origin:initial;background-image:initial;background-color:rgba(255, 255, 255, 0);background-clip:initial;background-attachment:initial;animation-play-state:paused" ><g class="ldl-scale" style="transform-origin:50% 50%;transform:rotate(0deg) scale(0.8, 0.8);animation-play-state:paused" ><path fill="#e0e0e0" d="M14.4 34.6c.2-1.1.4-2.2.7-3.3.9-3.7 3.2-7.7 6.3-9.9 4.2-3 9.9-3.7 14.7-1.8 3.4 1.3 6.6 3.9 10.2 3.4 1.8-.3 3.4-1.3 5-2.2 7.1-4.1 15.4-6.6 23.4-5.3 8.1 1.3 15.7 7.1 17.4 15.1 1.9 8.6-3 17-8.1 24.2-2.4 3.4-4.6 7.6-4.1 11.8.2 1.8.8 3.7.9 5.5.2 3.8-1.5 8.3-4.8 10.2-3.8 2.2-8.6 2.3-12.8 2.5-6.3.3-10.4-1.5-14.8-5.8-4.1-3.9-9.3-7.7-15-8.3-5.4-.5-10.5 2.6-15.7.5-9-3.5-12.2-13.7-9-22.5 1.3-3.5 3.5-6.6 4.7-10.2.4-1.2.7-2.5 1-3.9z" style="fill:rgb(245, 245, 245);animation-play-state:paused" ></path>
<g style="animation-play-state:paused" ><ellipse fill="#f7b26a" ry="16" rx="14.2" cy="48.8" cx="56" transform="rotate(-13.657 55.996 48.804)" style="fill:rgb(247, 178, 106);animation-play-state:paused" ></ellipse>
<path stroke-miterlimit="10" stroke-width="2" stroke="#fff" fill="#f7b26a" stroke-linecap="round" d="M46.8 42.8c1.3-2.2 3.1-4.1 5.4-5.3" style="stroke:rgb(255, 255, 255);fill:rgb(247, 178, 106);animation-play-state:paused" ></path>
<path stroke-miterlimit="10" stroke-width="2" stroke="#fff" fill="#f7b26a" stroke-linecap="round" d="M45.2 46.5c.1-.3.2-.7.3-1" style="stroke:rgb(255, 255, 255);fill:rgb(247, 178, 106);animation-play-state:paused" ></path></g>
<metadata xmlns:d="https://loading.io/stock/" style="animation-play-state:paused" ><d:name style="animation-play-state:paused" >sunny side up egg</d:name>
<d:tags style="animation-play-state:paused" >sunny side up egg,over-egg,egg,omelet,scrambled,fried eggs,food,breakfast,brunch</d:tags>
<d:license style="animation-play-state:paused" >by</d:license>
<d:slug style="animation-play-state:paused" >49041r</d:slug></metadata></g><!-- generated by https://loading.io/ --></svg>